<?xml version="1.0" encoding="UTF-8"?>
<svg id="Layer_8" data-name="Layer 8" xmlns="http://www.w3.org/2000/svg" viewBox="0 0 170.82 223.95">
  <path d="M166.4,24.63c-5.11-16.8-23.39-28.15-38.56-20.88-5.97,2.66-12.15,7.57-13.28,14.76-2.3,12.61,11.54,20.85,21.15,14.7,7.96-6,1.18-16.21.14-22.39.49-5.97,11.85-1.65,15.19,1.18,11.88,9.46,12.89,30.15,3.57,42-20.63,27.48-64.53,25.77-85.56,52.58-10.3,15.56-10.8,45.61,5.2,57.06,16.99,11.07,49.64-1.45,41.78-26.42-4.25-13.75-25.23-14.43-28.53.22-1.64,6.79,4.27,13.41,2.13,19.8-1.09,2.4-3.63,3.32-6.57,2.94-7.79-1.25-13.04-10.17-13.66-18.14-1.47-14.8,9.89-26.19,21.76-31.44,9.16-4.36,19.58-9.86,27.3.3,30.26,35.67,5.61,84.76-37.26,87.85-23.35,2.14-48.63-13.42-56.98-36.71-8.97-23.86-7.66-60.86,17.15-71.63,5.22-1.74,10.95.42,16.14.21,6.1-.03,8.86-6.52,4.15-10.83-1.62-1.5-3.56-2.35-5.58-3.21-7.35-2.32-12.47-7.87-14.86-15.59-4.76-13.84-3.61-30.34,5.42-41.54,4.51-5.86,12.35-9.41,19.18-6.39,9.26,4.42,2.47,8.82-.48,15.91-3.32,7.74,1.48,17.12,9.38,18.31,10.86,2.09,19.09-7.2,16.32-18.63C82.53-7.02,24.48-.66,24.69,42.03c-.68,17.8,11.64,27.58,10.07,39.21-1.09,6.96-7.7,11.5-12.42,16.09-11.9,11.15-17.59,28.21-18.58,44.81C.11,187.73,44.53,228.35,85.85,219.92c43.96-7.93,67.32-67.73,43.19-107.13-1.96-3.19-5.57-7.2-5.38-10.94.32-4.65,5.93-6.67,9.53-8.66,3.04-1.57,6.03-3.26,8.91-5.16,20.59-12.38,32.48-38.7,24.34-63.26l-.04-.13Z"/>
</svg>