<?xml version="1.0" encoding="UTF-8"?>
<svg id="Layer_2" data-name="Layer 2" xmlns="http://www.w3.org/2000/svg" viewBox="0 0 326.77 98.52">
  <defs>
    <style>
      .cls-1 {
        fill: #221f20;
      }
    </style>
  </defs>
  <g>
    <path class="cls-1" d="M16.61,96.75h-7.25v-.82c.74,0,1.26-.06,1.58-.17.32-.11.52-.34.61-.68.09-.34.13-.87.13-1.57v-9.26c0-.62-.04-1.12-.12-1.48-.08-.36-.28-.61-.6-.76-.32-.14-.86-.22-1.61-.22v-.82h7.27v.82c-.74,0-1.27.07-1.6.22-.33.14-.53.4-.6.76-.07.36-.11.86-.11,1.5v4.39h.12l3.96-3.79c.53-.51.92-.94,1.19-1.27.26-.34.4-.68.4-1.03,0-.27-.07-.47-.2-.59-.14-.12-.37-.18-.71-.18h-.38v-.82h6.07v.82c-.45.02-.83.08-1.14.19-.31.11-.62.28-.92.5-.3.22-.67.54-1.1.94l-4.97,4.61,6.82,6.86c.4.37.77.63,1.1.79.34.16.79.24,1.37.24v.82h-7.39v-.82h.43c.32,0,.56-.04.71-.12.15-.08.23-.21.23-.38,0-.26-.11-.54-.32-.85-.22-.31-.57-.72-1.06-1.21-.49-.5-1.13-1.14-1.93-1.92l-2.06-2.09h-.19v4.15c0,.67.04,1.18.13,1.52.09.34.3.58.62.71.33.13.84.19,1.52.19v.82Z"/>
    <path class="cls-1" d="M31.25,97.04c-.53,0-1.02-.06-1.49-.19-.46-.13-.84-.34-1.12-.64-.28-.3-.42-.68-.42-1.16,0-.4.1-.72.31-.95.21-.23.5-.35.86-.35.32,0,.57.08.76.24.18.16.34.36.46.59.12.23.24.47.35.71.11.24.23.44.36.6.13.16.3.24.53.24.46,0,.77-.18.91-.55s.22-.98.22-1.85v-9.48c0-.62-.04-1.12-.12-1.48-.08-.36-.29-.61-.62-.76-.34-.14-.89-.22-1.66-.22v-.82h7.27v.82c-.67,0-1.17.07-1.49.22-.32.14-.52.4-.61.76-.09.36-.13.85-.13,1.48v8.76c0,.83-.12,1.51-.35,2.04s-.55.94-.96,1.24-.88.5-1.4.6c-.53.1-1.08.16-1.66.16Z"/>
    <path class="cls-1" d="M45.24,96.75h-5.33v-.82c.45,0,.82-.08,1.12-.25.3-.17.58-.44.84-.8.26-.37.56-.85.88-1.44l5.54-9.89c.08-.18.15-.34.22-.5.06-.16.1-.33.1-.5,0-.32-.12-.52-.36-.61-.24-.09-.6-.13-1.08-.13v-.82h13.66l.14,4.06h-.91c-.11-.8-.29-1.4-.53-1.81-.24-.41-.61-.68-1.1-.82-.5-.14-1.2-.2-2.11-.2h-3.24v6.26h2.38c.74,0,1.3-.06,1.68-.17.38-.11.64-.33.78-.66.14-.33.2-.81.2-1.45h.91v5.47h-.91c0-.64-.07-1.11-.2-1.42-.14-.3-.4-.5-.78-.59-.38-.09-.94-.13-1.68-.13h-2.38v6.05h2.78c.88,0,1.6-.04,2.15-.13.55-.09.99-.25,1.32-.48.33-.23.6-.57.82-1.02.22-.45.44-1.02.66-1.73h.89l-.67,4.54h-12.89v-.82c.74,0,1.26-.06,1.58-.18.32-.12.52-.38.61-.77.09-.39.13-1,.13-1.81v-3.65h-4.37l.46-1.06h3.91v-6.26h-.17l-3.58,6.53-.22.55-2.5,4.51c-.1.16-.18.35-.25.58-.07.22-.11.44-.11.65,0,.37.13.61.38.73s.66.18,1.22.18v.82Z"/>
    <path class="cls-1" d="M72.72,96.75h-7.2v-.82c.61,0,1.07-.05,1.38-.14.31-.1.52-.3.64-.62.11-.32.17-.82.17-1.49v-10.08c0-.45-.05-.8-.14-1.07-.1-.26-.3-.45-.61-.56-.31-.11-.79-.17-1.43-.17v-.82h6.53c1.17,0,2.22.12,3.17.36.94.24,1.69.64,2.23,1.21.54.57.82,1.36.82,2.39,0,.9-.2,1.62-.59,2.17-.39.55-.89.98-1.49,1.3-.6.31-1.24.55-1.91.71v.1c.27.16.57.43.9.82.33.38.76.95,1.28,1.69.53.74,1.23,1.74,2.11,2.99.37.53.74.86,1.12,1.01s.84.22,1.38.22v.82h-4.44c-.62-.98-1.14-1.79-1.55-2.45-.41-.66-.76-1.2-1.04-1.64-.29-.44-.54-.83-.77-1.18-.22-.34-.46-.7-.7-1.07-.24-.37-.46-.6-.66-.68-.2-.09-.52-.13-.95-.13h-.62v4.1c0,.64.06,1.12.17,1.45.11.33.34.54.67.64.34.1.85.14,1.54.14v.82ZM70.34,88.59l.91.02c.86-.05,1.6-.18,2.22-.41.62-.22,1.1-.59,1.44-1.09.34-.5.52-1.19.52-2.05,0-.94-.28-1.69-.84-2.24-.56-.55-1.46-.83-2.69-.83-.26,0-.52,0-.78.01s-.52.03-.78.06v6.53Z"/>
    <path class="cls-1" d="M95.76,97.11c-1.38,0-2.43-.32-3.17-.97-.74-.65-1.1-1.58-1.1-2.8,0-.75.16-1.44.48-2.05.32-.62.82-1.2,1.51-1.75.69-.55,1.6-1.12,2.74-1.69l.34.77c-.83.5-1.44,1.07-1.84,1.73-.39.66-.59,1.4-.59,2.23,0,.62.1,1.15.31,1.58.21.43.52.76.92,1,.41.23.91.35,1.5.35.56,0,1.09-.1,1.58-.29.5-.19,1.06-.58,1.7-1.18l.6.65c-.59.61-1.14,1.09-1.64,1.44-.5.35-1.02.6-1.55.76-.53.15-1.13.23-1.8.23ZM104.42,97.11c-.53,0-1-.08-1.42-.25-.42-.17-.84-.44-1.26-.8s-.93-.87-1.52-1.51c-.35-.4-.76-.92-1.22-1.57-.46-.65-.95-1.38-1.45-2.18-.5-.81-.99-1.64-1.45-2.48-.5-.91-.87-1.7-1.12-2.35s-.37-1.29-.37-1.9c0-.96.36-1.73,1.08-2.32.72-.58,1.67-.88,2.86-.88.98,0,1.8.24,2.46.72.66.48,1,1.21,1,2.18,0,.86-.29,1.61-.88,2.23s-1.61,1.25-3.08,1.87l-.36-.72c.66-.29,1.17-.61,1.55-.97s.65-.75.82-1.18.25-.87.25-1.33c0-.58-.15-1.06-.44-1.45-.3-.39-.72-.59-1.28-.59s-1.02.16-1.34.49c-.32.33-.48.76-.48,1.31,0,.46.11,1.01.32,1.64.22.63.51,1.3.88,1.99.37.7.78,1.4,1.24,2.11s.92,1.39,1.39,2.03c.47.64.92,1.19,1.33,1.66.66.74,1.23,1.3,1.72,1.69.49.39,1.07.59,1.74.59.5,0,.93-.1,1.31-.31s.72-.55,1.04-1.03l.5.29c-.21.61-.5,1.14-.89,1.6s-.82.81-1.32,1.06c-.5.25-1.02.37-1.58.37ZM102,93.44l-.62-.55c.51-.77.92-1.4,1.21-1.91s.51-.94.65-1.3c.14-.36.2-.7.2-1.02s-.1-.58-.3-.72c-.2-.14-.57-.22-1.12-.22v-.79h5.18v.79c-.59,0-1.04.09-1.36.28s-.6.51-.88.97c-.32.54-.62,1.03-.89,1.46-.27.43-.57.88-.89,1.33-.32.46-.72,1.01-1.2,1.67Z"/>
    <path class="cls-1" d="M120.45,97.08h-.84l-.22-5.18h.89c.27,1.09.59,1.92.96,2.5.37.58.82.97,1.34,1.18.53.21,1.17.31,1.92.31.58,0,1.08-.08,1.52-.24.44-.16.79-.42,1.04-.77.26-.35.38-.82.38-1.39,0-.7-.18-1.28-.55-1.74-.37-.46-.85-.86-1.44-1.2-.59-.34-1.21-.69-1.85-1.04-.67-.37-1.31-.76-1.92-1.16-.61-.41-1.1-.91-1.48-1.5-.38-.59-.56-1.33-.56-2.21s.21-1.58.64-2.16,1-1.02,1.72-1.32c.72-.3,1.54-.46,2.45-.46.69,0,1.23.06,1.63.17.4.11.72.23.96.35.24.12.46.18.65.18.18,0,.33-.05.46-.14.13-.1.22-.26.29-.5h.72l.14,4.87h-.84c-.34-1.38-.79-2.37-1.36-2.99-.57-.62-1.41-.92-2.53-.9-.83,0-1.47.18-1.91.53s-.66.88-.66,1.58c0,.59.17,1.1.5,1.51s.78.78,1.33,1.1c.55.32,1.13.65,1.74.98.53.29,1.06.58,1.6.89.54.3,1.02.65,1.46,1.04.44.39.79.86,1.06,1.39s.4,1.16.4,1.88c0,.94-.22,1.74-.67,2.4-.45.66-1.07,1.15-1.86,1.49s-1.69.5-2.7.5c-.82,0-1.47-.06-1.96-.18-.49-.12-.87-.24-1.14-.36s-.5-.18-.67-.18-.32.07-.44.22c-.12.14-.19.33-.2.55Z"/>
    <path class="cls-1" d="M141.96,97.06c-1.62,0-3-.33-4.16-.98-1.16-.66-2.05-1.6-2.66-2.82-.62-1.22-.92-2.69-.92-4.4s.31-3.08.94-4.31c.62-1.22,1.51-2.17,2.66-2.84,1.15-.67,2.54-1.01,4.15-1.01s3,.33,4.15.98c1.15.66,2.03,1.58,2.64,2.76.61,1.18.91,2.58.91,4.2,0,1.7-.31,3.18-.92,4.44-.62,1.26-1.5,2.24-2.65,2.94-1.15.7-2.53,1.04-4.13,1.04ZM141.98,95.96c1.6,0,2.8-.6,3.59-1.8.79-1.2,1.19-3.02,1.19-5.45,0-1.46-.2-2.7-.61-3.73-.41-1.03-.98-1.82-1.7-2.38-.73-.55-1.58-.83-2.56-.83-1.47,0-2.63.61-3.48,1.82-.85,1.22-1.27,2.92-1.27,5.11s.4,4.03,1.2,5.32c.8,1.29,2.02,1.93,3.65,1.93Z"/>
    <path class="cls-1" d="M159.43,96.75h-5.78v-.82c.66,0,1.14-.06,1.46-.17.32-.11.53-.36.64-.76.1-.39.16-1,.16-1.81v-9.19c0-.61-.05-1.07-.16-1.38-.1-.31-.31-.53-.62-.65s-.79-.18-1.43-.18v-.82h5.5l4.87,11.76h.14l4.85-11.76h5.11v.82c-.56,0-.99.06-1.3.18-.3.12-.51.34-.62.65-.11.31-.17.76-.17,1.36v9.86c0,.56.06.99.18,1.3.12.3.33.51.64.62.3.11.73.17,1.29.17v.82h-6.82v-.82c.62,0,1.09-.06,1.39-.17.3-.11.5-.32.6-.62.1-.3.14-.74.14-1.3v-10.08h-.12l-5.47,12.98h-.98l-5.54-12.96h-.12v9.41c0,.82.06,1.42.17,1.81.11.39.32.64.64.76.31.11.76.17,1.36.17v.82Z"/>
    <path class="cls-1" d="M183.86,96.75h-5.78v-.82c.66,0,1.14-.06,1.46-.17.32-.11.53-.36.64-.76.1-.39.16-1,.16-1.81v-9.19c0-.61-.05-1.07-.16-1.38-.1-.31-.31-.53-.62-.65-.31-.12-.79-.18-1.43-.18v-.82h5.5l4.87,11.76h.14l4.85-11.76h5.11v.82c-.56,0-.99.06-1.3.18s-.51.34-.62.65c-.11.31-.17.76-.17,1.36v9.86c0,.56.06.99.18,1.3.12.3.33.51.64.62.3.11.74.17,1.3.17v.82h-6.82v-.82c.62,0,1.09-.06,1.39-.17.3-.11.5-.32.6-.62.1-.3.14-.74.14-1.3v-10.08h-.12l-5.47,12.98h-.98l-5.54-12.96h-.12v9.41c0,.82.06,1.42.17,1.81.11.39.32.64.64.76.31.11.76.17,1.36.17v.82Z"/>
    <path class="cls-1" d="M215.83,96.75h-13.1v-.82c.61,0,1.08-.04,1.4-.13s.56-.28.68-.58c.13-.3.19-.76.19-1.38v-9.84c0-.61-.06-1.07-.17-1.39-.11-.32-.33-.54-.65-.65-.32-.11-.81-.17-1.46-.17v-.82h12.86l.14,4.06h-.91c-.11-.77-.28-1.36-.49-1.76-.22-.41-.58-.69-1.08-.84-.5-.15-1.24-.23-2.2-.23h-3.41v5.9h2.59c.77,0,1.34-.06,1.72-.17.38-.11.63-.33.76-.66s.19-.81.19-1.45h.89v5.57h-.89c0-.67-.06-1.16-.19-1.48-.13-.31-.38-.52-.76-.61s-.95-.14-1.72-.14h-2.59v6.41h3.02c.88,0,1.6-.05,2.15-.14s.99-.26,1.31-.5.59-.58.8-1.02c.22-.44.44-1,.66-1.69h.89l-.65,4.54Z"/>
    <path class="cls-1" d="M227.49,96.75h-7.2v-.82c.61,0,1.07-.05,1.38-.14.31-.1.52-.3.64-.62.11-.32.17-.82.17-1.49v-10.08c0-.45-.05-.8-.14-1.07-.1-.26-.3-.45-.61-.56-.31-.11-.79-.17-1.43-.17v-.82h6.53c1.17,0,2.22.12,3.17.36.94.24,1.69.64,2.23,1.21.54.57.82,1.36.82,2.39,0,.9-.2,1.62-.59,2.17-.39.55-.89.98-1.49,1.3-.6.31-1.24.55-1.91.71v.1c.27.16.57.43.9.82.33.38.76.95,1.28,1.69.53.74,1.23,1.74,2.11,2.99.37.53.74.86,1.12,1.01s.84.22,1.38.22v.82h-4.44c-.62-.98-1.14-1.79-1.55-2.45-.41-.66-.76-1.2-1.04-1.64-.29-.44-.54-.83-.77-1.18-.22-.34-.46-.7-.7-1.07-.24-.37-.46-.6-.66-.68-.2-.09-.52-.13-.95-.13h-.62v4.1c0,.64.06,1.12.17,1.45.11.33.34.54.67.64.34.1.85.14,1.54.14v.82ZM225.12,88.59l.91.02c.86-.05,1.6-.18,2.22-.41.62-.22,1.1-.59,1.44-1.09.34-.5.52-1.19.52-2.05,0-.94-.28-1.69-.84-2.24-.56-.55-1.46-.83-2.69-.83-.26,0-.52,0-.78.01-.26,0-.52.03-.78.06v6.53Z"/>
    <path class="cls-1" d="M246.14,96.75h-7.42v-.82c.64,0,1.12-.05,1.44-.14.32-.1.54-.29.66-.59s.18-.74.18-1.33v-10.08c0-.56-.07-.98-.2-1.26-.14-.28-.37-.47-.71-.58-.34-.1-.79-.16-1.37-.16v-.82h12.98l.14,4.08h-.91c-.11-.58-.23-1.05-.35-1.42-.12-.37-.3-.66-.54-.86-.24-.21-.59-.36-1.04-.44-.46-.09-1.08-.13-1.86-.13h-3.5v5.93h2.52c.69,0,1.22-.06,1.61-.18s.65-.35.79-.68c.14-.34.22-.82.22-1.46h.91v5.59h-.91c0-.66-.07-1.14-.22-1.45-.14-.31-.41-.52-.79-.61-.38-.1-.92-.14-1.61-.14h-2.52v4.82c0,.54.08.95.23,1.22.15.27.41.46.78.55.37.1.86.14,1.49.14v.82Z"/>
    <path class="cls-1" d="M268.34,96.75h-13.1v-.82c.61,0,1.08-.04,1.4-.13s.56-.28.68-.58c.13-.3.19-.76.19-1.38v-9.84c0-.61-.06-1.07-.17-1.39-.11-.32-.33-.54-.65-.65-.32-.11-.81-.17-1.46-.17v-.82h12.86l.14,4.06h-.91c-.11-.77-.28-1.36-.49-1.76-.22-.41-.58-.69-1.08-.84-.5-.15-1.24-.23-2.2-.23h-3.41v5.9h2.59c.77,0,1.34-.06,1.72-.17.38-.11.63-.33.76-.66s.19-.81.19-1.45h.89v5.57h-.89c0-.67-.06-1.16-.19-1.48-.13-.31-.38-.52-.76-.61s-.95-.14-1.72-.14h-2.59v6.41h3.02c.88,0,1.6-.05,2.15-.14s.99-.26,1.31-.5.59-.58.8-1.02c.22-.44.44-1,.66-1.69h.89l-.65,4.54Z"/>
    <path class="cls-1" d="M285.26,96.75h-12.48v-.82c.66,0,1.14-.06,1.45-.17.31-.11.52-.33.61-.65s.14-.79.14-1.42v-9.58c0-.62-.04-1.1-.13-1.44s-.29-.57-.61-.7c-.32-.13-.8-.19-1.44-.19v-.82h7.18v.82c-.66,0-1.15.07-1.49.2-.34.14-.56.37-.68.71s-.18.82-.18,1.44v10.13c0,.54.13.9.38,1.07s.74.25,1.44.25h1.22c.75,0,1.37-.06,1.85-.18.48-.12.86-.32,1.15-.6.29-.28.53-.66.73-1.13.2-.47.41-1.05.64-1.74h.91l-.7,4.8Z"/>
    <path class="cls-1" d="M296.3,96.75h-6.91v-.82c.69,0,1.2-.05,1.52-.16.33-.1.54-.32.64-.65s.14-.81.14-1.45v-9.86c0-.59-.07-1.03-.2-1.31-.14-.28-.37-.46-.71-.55s-.8-.13-1.39-.13v-.84h6.7c1.23,0,2.4.12,3.49.37,1.1.25,2.06.66,2.9,1.25.84.58,1.5,1.37,1.98,2.36.48.99.72,2.24.72,3.74s-.22,2.67-.65,3.7c-.43,1.02-1.05,1.86-1.85,2.5-.8.64-1.74,1.11-2.82,1.4s-2.27.44-3.56.44ZM295.65,95.69c1.38,0,2.56-.19,3.54-.56.98-.38,1.74-1.05,2.27-2.03.53-.98.79-2.36.79-4.15,0-2.22-.55-3.92-1.66-5.1-1.1-1.18-2.82-1.76-5.16-1.76h-.52c-.17,0-.36.02-.59.05v13.51c.22.02.45.03.67.04.22,0,.44.01.65.01Z"/>
    <path class="cls-1" d="M319.41,96.75h-7.37v-.82c.69,0,1.2-.05,1.52-.16.33-.1.55-.33.66-.67.11-.34.17-.88.17-1.6v-11.38h-1.39c-.88,0-1.54.1-1.98.29-.44.19-.76.52-.95,1-.19.47-.38,1.15-.55,2.03h-.89l.26-4.46h13.7l.19,4.46h-.89c-.18-.88-.36-1.56-.55-2.03s-.5-.8-.94-1c-.43-.19-1.1-.29-1.99-.29h-1.37v11.38c0,.72.05,1.25.16,1.6.1.34.32.57.66.67.34.1.85.16,1.54.16v.82Z"/>
  </g>
  <g>
    <path class="cls-1" d="M90.88,67.25h-3.02v-.34c.31,0,.53-.02.66-.07.13-.05.22-.14.25-.28.04-.14.06-.36.06-.66v-3.86c0-.26-.02-.46-.05-.62-.03-.15-.12-.25-.25-.31s-.36-.09-.67-.09v-.34h3.03v.34c-.31,0-.53.03-.67.09s-.22.17-.25.31c-.03.15-.04.36-.04.62v1.83h.05l1.65-1.58c.22-.21.39-.39.5-.53s.17-.28.17-.43c0-.11-.03-.19-.08-.24-.06-.05-.16-.08-.29-.08h-.16v-.34h2.53v.34c-.19,0-.34.03-.47.08-.13.05-.26.12-.39.21s-.28.22-.46.39l-2.07,1.92,2.84,2.86c.17.15.32.26.46.33.14.07.33.1.57.1v.34h-3.08v-.34h.18c.13,0,.23-.02.29-.05.06-.03.1-.09.1-.16,0-.11-.04-.23-.13-.35-.09-.13-.24-.3-.44-.51-.2-.21-.47-.47-.8-.8l-.86-.87h-.08v1.73c0,.28.02.49.05.64.04.14.12.24.26.29.14.05.35.08.63.08v.34Z"/>
    <path class="cls-1" d="M103.61,67.36c-1.09,0-1.9-.29-2.44-.88-.54-.59-.81-1.42-.81-2.48,0-.76.14-1.39.43-1.9.29-.51.68-.89,1.17-1.15.5-.26,1.06-.38,1.69-.38.36,0,.65.03.86.09s.38.12.51.18.23.09.31.09c.09,0,.16-.04.21-.1s.09-.15.15-.25h.34v2.33h-.39c-.12-.67-.35-1.15-.68-1.44-.33-.29-.77-.44-1.3-.44-.68,0-1.2.25-1.55.75-.36.5-.54,1.19-.54,2.08,0,1.01.18,1.76.55,2.26.37.5.89.75,1.58.75.31,0,.56-.04.78-.12.21-.08.41-.2.61-.35v-1.01c0-.24-.02-.42-.06-.54-.04-.12-.12-.21-.25-.25s-.32-.07-.57-.07v-.36h2.58v.36c-.28,0-.46.05-.54.15-.08.1-.12.3-.12.62v1.41c-.36.21-.73.37-1.11.49-.38.12-.85.19-1.4.19Z"/>
    <path class="cls-1" d="M117.8,67.25h-5.2v-.34c.27,0,.48-.02.6-.07.13-.05.21-.14.25-.27.04-.13.06-.33.06-.59v-3.99c0-.26-.02-.46-.06-.6-.04-.14-.12-.24-.25-.29s-.33-.08-.6-.08v-.34h2.99v.34c-.27,0-.48.03-.62.08s-.23.15-.29.29c-.05.14-.07.34-.07.6v4.22c0,.23.05.38.16.44.11.07.31.1.6.1h.51c.31,0,.57-.02.77-.08.2-.05.36-.13.48-.25.12-.12.22-.27.3-.47s.17-.44.27-.73h.38l-.29,2Z"/>
    <path class="cls-1" d="M120.88,67.34c-.21,0-.38-.06-.48-.19-.11-.12-.17-.28-.17-.46s.06-.34.18-.48c.12-.13.28-.19.48-.19s.38.06.49.19c.11.13.17.29.17.49,0,.17-.06.32-.17.45s-.28.19-.5.19Z"/>
    <path class="cls-1" d="M130.61,67.25h-3.01v-.34c.29,0,.51-.02.64-.06s.22-.14.25-.29.06-.37.06-.66v-3.86c0-.26-.02-.46-.04-.62-.03-.15-.11-.25-.25-.31-.14-.06-.35-.09-.66-.09v-.34h3.02v.34c-.31,0-.53.03-.67.09s-.22.17-.25.31c-.03.15-.05.35-.05.62v1.63h3.16v-1.63c0-.26-.02-.46-.05-.62-.03-.15-.12-.25-.25-.31-.14-.06-.35-.09-.66-.09v-.34h3.03v.34c-.31,0-.54.03-.68.09s-.22.16-.25.31c-.03.15-.04.35-.04.62v3.86c0,.29.02.5.06.65.04.15.12.24.27.29.14.05.36.07.65.07v.34h-3.03v-.34c.3,0,.52-.02.66-.07.14-.05.22-.14.25-.29.03-.15.05-.36.05-.65v-1.79h-3.16v1.79c0,.29.02.51.05.66.04.14.12.24.26.28.14.05.35.07.65.07v.34Z"/>
    <path class="cls-1" d="M140.29,67.38c-.67,0-1.25-.14-1.73-.41s-.85-.67-1.11-1.18c-.26-.51-.39-1.12-.39-1.83s.13-1.29.39-1.79c.26-.51.63-.91,1.11-1.19s1.06-.42,1.73-.42,1.25.14,1.73.41.85.66,1.1,1.15.38,1.08.38,1.75c0,.71-.13,1.32-.38,1.85-.26.53-.62.93-1.1,1.22s-1.05.44-1.72.44ZM140.3,66.92c.67,0,1.16-.25,1.49-.75s.5-1.26.5-2.27c0-.61-.08-1.12-.25-1.55-.17-.43-.41-.76-.71-.99-.3-.23-.66-.35-1.06-.35-.61,0-1.1.25-1.45.76-.35.51-.53,1.22-.53,2.13s.17,1.68.5,2.22c.33.54.84.8,1.52.8Z"/>
    <path class="cls-1" d="M148.79,67.25h-3.09v-.34c.27,0,.47-.02.6-.06.13-.04.22-.12.28-.25.05-.12.07-.31.07-.56v-4.2c0-.23-.03-.41-.08-.52s-.15-.2-.29-.24-.33-.06-.57-.06v-.34h5.41l.06,1.7h-.38c-.05-.24-.09-.44-.14-.59s-.12-.27-.22-.36c-.1-.09-.25-.15-.44-.19s-.45-.06-.78-.06h-1.46v2.47h1.05c.29,0,.51-.03.67-.08s.27-.15.33-.29c.06-.14.09-.34.09-.61h.38v2.33h-.38c0-.27-.03-.48-.09-.6-.06-.13-.17-.21-.33-.25s-.38-.06-.67-.06h-1.05v2.01c0,.23.03.4.09.51.06.11.17.19.33.23.15.04.36.06.62.06v.34Z"/>
    <path class="cls-1" d="M158.26,67.25h-5.2v-.34c.27,0,.48-.02.61-.07.13-.05.21-.14.25-.27.04-.13.06-.33.06-.59v-3.99c0-.26-.02-.46-.05-.6-.04-.14-.12-.24-.25-.29-.13-.05-.33-.08-.6-.08v-.34h2.99v.34c-.27,0-.48.03-.62.08-.14.06-.23.15-.28.29-.05.14-.08.34-.08.6v4.22c0,.23.05.38.16.44.11.07.31.1.6.1h.51c.31,0,.57-.02.77-.08.2-.05.36-.13.48-.25.12-.12.22-.27.31-.47.08-.2.17-.44.26-.73h.38l-.29,2Z"/>
    <path class="cls-1" d="M165.9,67.25h-5.46v-.34c.25,0,.45-.02.58-.06s.23-.12.29-.24c.05-.12.08-.32.08-.58v-4.1c0-.25-.02-.45-.07-.58-.05-.13-.14-.22-.27-.27-.13-.05-.34-.07-.61-.07v-.34h5.36l.06,1.69h-.38c-.05-.32-.12-.56-.21-.74-.09-.17-.24-.29-.45-.35s-.51-.1-.92-.1h-1.42v2.46h1.08c.32,0,.56-.02.71-.07.16-.05.26-.14.31-.27.05-.14.08-.34.08-.6h.37v2.32h-.37c0-.28-.03-.48-.08-.62-.05-.13-.16-.21-.31-.25-.16-.04-.4-.06-.71-.06h-1.08v2.67h1.26c.37,0,.67-.02.9-.06.23-.04.41-.11.54-.21.13-.1.25-.24.33-.43.09-.18.18-.42.27-.71h.37l-.27,1.89Z"/>
    <path class="cls-1" d="M171.56,67.3h-.52l-2.32-5.38c-.1-.22-.2-.4-.29-.52s-.19-.23-.31-.29c-.12-.06-.27-.09-.47-.09v-.34h2.89v.34c-.1,0-.2,0-.31.02-.1.01-.19.05-.26.1s-.11.14-.11.27c0,.14.05.34.16.59l1.18,2.83.39,1.03h.06l.35-1,1.2-3.03c.03-.06.05-.13.07-.21s.04-.17.04-.26c0-.13-.05-.22-.16-.27-.11-.05-.27-.07-.5-.07v-.34h2.15v.34c-.14,0-.26.02-.36.04-.1.03-.18.09-.26.19s-.17.23-.26.42c-.09.19-.2.43-.33.73l-2.04,4.9Z"/>
    <path class="cls-1" d="M181.88,67.25h-5.46v-.34c.25,0,.45-.02.58-.06s.23-.12.29-.24c.05-.12.08-.32.08-.58v-4.1c0-.25-.02-.45-.07-.58-.05-.13-.14-.22-.27-.27-.13-.05-.34-.07-.61-.07v-.34h5.36l.06,1.69h-.38c-.05-.32-.12-.56-.21-.74-.09-.17-.24-.29-.45-.35s-.51-.1-.92-.1h-1.42v2.46h1.08c.32,0,.56-.02.71-.07.16-.05.26-.14.31-.27.05-.14.08-.34.08-.6h.37v2.32h-.37c0-.28-.03-.48-.08-.62-.05-.13-.16-.21-.31-.25-.16-.04-.4-.06-.71-.06h-1.08v2.67h1.26c.37,0,.67-.02.9-.06.23-.04.41-.11.54-.21.13-.1.25-.24.33-.43.09-.18.18-.42.27-.71h.37l-.27,1.89Z"/>
    <path class="cls-1" d="M187.19,67.25h-3v-.34c.25,0,.44-.02.57-.06.13-.04.22-.13.27-.26.05-.13.07-.34.07-.62v-4.2c0-.19-.02-.33-.06-.44-.04-.11-.12-.19-.25-.24-.13-.05-.33-.07-.59-.07v-.34h2.72c.49,0,.93.05,1.32.15.39.1.7.27.93.5.23.24.34.57.34,1,0,.37-.08.67-.25.9s-.37.41-.62.54-.51.23-.79.29v.04c.11.07.24.18.38.34.14.16.32.4.54.7.22.31.51.73.88,1.25.15.22.31.36.46.42.16.06.35.09.58.09v.34h-1.85c-.26-.41-.48-.75-.65-1.02s-.31-.5-.43-.69c-.12-.18-.23-.35-.32-.49-.09-.14-.19-.29-.29-.45-.1-.15-.19-.25-.27-.28-.08-.04-.22-.06-.4-.06h-.26v1.71c0,.27.02.47.07.6.05.14.14.23.28.27.14.04.35.06.64.06v.34ZM186.2,63.85h.38c.36-.01.67-.07.92-.16s.46-.25.6-.46c.14-.21.21-.49.21-.85,0-.39-.12-.71-.35-.94s-.61-.34-1.12-.34c-.11,0-.21,0-.32,0-.11,0-.22.01-.33.02v2.72Z"/>
    <path class="cls-1" d="M194.14,67.25h-2.15v-.34c.18,0,.33-.03.44-.08s.22-.17.32-.34.22-.43.36-.77l2.14-5.08h.61l2.3,5.37c.15.33.29.56.43.7.14.14.34.21.59.21v.34h-2.85v-.34c.09,0,.19,0,.29-.02s.19-.04.26-.1c.07-.05.11-.13.11-.25,0-.07-.02-.17-.04-.27-.03-.11-.08-.24-.14-.38l-.39-.91-.07-.22-1.08-2.81h-.03l-1.13,2.81-.08.22-.44,1.06c-.03.08-.05.16-.08.25-.03.09-.04.18-.04.27,0,.15.05.24.16.29s.28.06.51.06v.34ZM196.59,65.09h-2.72l.16-.44h2.4l.16.44Z"/>
    <path class="cls-1" d="M207.04,67.33h-.59l-4.04-5.29h-.31l-.22-.42c-.12-.17-.23-.3-.33-.39-.1-.08-.2-.14-.3-.17-.1-.03-.23-.04-.39-.04v-.34h1.93l3.64,4.79h.05v-3.16c0-.29-.02-.54-.06-.73s-.12-.33-.25-.42-.34-.14-.63-.14v-.34h2.41v.34c-.27,0-.46.05-.59.15s-.21.24-.25.44-.06.44-.06.75v4.98ZM203.27,67.25h-2.4v-.34c.27,0,.47-.05.6-.15.13-.1.22-.25.27-.46.05-.21.07-.48.07-.81v-4.16h.55v4.39c0,.33.02.58.07.75s.14.28.27.34c.13.06.32.09.57.09v.34Z"/>
    <path class="cls-1" d="M212.78,67.25h-2.88v-.34c.29,0,.5-.02.64-.06.14-.04.22-.13.26-.27s.06-.34.06-.6v-4.11c0-.25-.03-.43-.08-.54s-.15-.19-.29-.23c-.14-.04-.33-.06-.58-.06v-.35h2.79c.51,0,1,.05,1.46.15.46.1.86.28,1.21.52.35.24.62.57.83.98.2.41.3.93.3,1.56s-.09,1.11-.27,1.54c-.18.43-.44.77-.77,1.04-.33.27-.72.46-1.17.58-.45.12-.95.19-1.48.19ZM212.51,66.81c.57,0,1.07-.08,1.47-.23.41-.16.73-.44.95-.85s.33-.98.33-1.73c0-.93-.23-1.63-.69-2.12-.46-.49-1.18-.73-2.15-.73h-.21c-.07,0-.15,0-.25.02v5.63c.09,0,.19.01.28.02.09,0,.18,0,.27,0Z"/>
    <path class="cls-1" d="M222.03,67.38c-.68,0-1.26-.14-1.74-.42-.48-.28-.85-.67-1.1-1.18-.25-.51-.38-1.12-.38-1.83s.13-1.29.38-1.79c.26-.51.63-.91,1.11-1.19s1.06-.42,1.72-.42,1.25.14,1.72.41.84.66,1.1,1.15.38,1.08.38,1.75c0,.71-.13,1.32-.38,1.85-.26.53-.62.93-1.1,1.22s-1.05.44-1.72.44ZM220.07,66.68l-.61.76-.37-.3.62-.78.36.32ZM222.04,66.92c.67,0,1.17-.25,1.5-.75.33-.5.49-1.26.49-2.27,0-.54-.08-1.03-.23-1.46-.15-.44-.38-.78-.68-1.04-.3-.26-.67-.39-1.12-.39-.61,0-1.09.25-1.44.76-.36.51-.54,1.22-.54,2.13,0,.57.07,1.08.2,1.54.13.46.35.82.64,1.08s.69.4,1.17.4ZM223.8,62l-3.36,4.22-.26-.42,3.32-4.16.3.36ZM224.78,60.8l-.54.68-.37-.3.54-.68.37.3Z"/>
    <path class="cls-1" d="M230.49,67.25h-3v-.34c.25,0,.44-.02.57-.06.13-.04.22-.13.27-.26.05-.13.07-.34.07-.62v-4.2c0-.19-.02-.33-.06-.44-.04-.11-.12-.19-.25-.24-.13-.05-.33-.07-.59-.07v-.34h2.72c.49,0,.93.05,1.32.15.39.1.7.27.93.5.23.24.34.57.34,1,0,.37-.08.67-.25.9s-.37.41-.62.54-.51.23-.79.29v.04c.11.07.24.18.38.34.14.16.32.4.54.7.22.31.51.73.88,1.25.15.22.31.36.46.42.16.06.35.09.58.09v.34h-1.85c-.26-.41-.48-.75-.65-1.02s-.31-.5-.43-.69c-.12-.18-.23-.35-.32-.49-.09-.14-.19-.29-.29-.45-.1-.15-.19-.25-.27-.28-.08-.04-.22-.06-.4-.06h-.26v1.71c0,.27.02.47.07.6.05.14.14.23.28.27.14.04.35.06.64.06v.34ZM229.5,63.85h.38c.36-.01.67-.07.92-.16s.46-.25.6-.46c.14-.21.21-.49.21-.85,0-.39-.12-.71-.35-.94s-.61-.34-1.12-.34c-.11,0-.21,0-.32,0-.11,0-.22.01-.33.02v2.72Z"/>
  </g>
  <path class="cls-1" d="M142.77,46.18c-5.36-3.8-10.6-9.95-7.41-16.84,1.76-3.8,5.19-4.72,9.12-4.25.89.1,1.82,1.01,2.44.9.48-.09,2.01-1.95,2.95-2.51,4.29-2.57,6.41-.55,10.8-.39,1.02-3.33-3.79-3.5-3.48-6.67.3-3.11,7.56-3.81,2.74-5.27-1.73,3.23-6.02-2.13-1.46-2.98,1.06-.2,2.2,1.97,3.2,1,1.34-1.29-3.29-1.87-.53-4.25,1.13-.97,1.42-.97,2.55,0,2.76,2.38-1.86,2.96-.53,4.25,1,.96,2.14-1.2,3.2-1,4.56.85.26,6.21-1.46,2.98-4.55,1.14,1,2.38,1.97,3.51,3.23,3.74-3.78,5.01-2.72,8.43,4.39-.16,6.52-2.17,10.8.39.94.56,2.47,2.42,2.95,2.51.62.12,1.55-.79,2.44-.9,7.3-.86,10.49,3.76,9.68,10.66-.52,4.45-4.69,7.81-7.96,10.43v9.19h-39.31v-9.19ZM158.64,26.12c-8.93-1.01-9.11,7.27-6.5,13.69,1.6,3.93,2.83,6.63,7.72,5.55l.84-1.16-2.06-18.08ZM166.47,26.13l-.82,1.17-1.49,16.9c.05,1.69,3.5,1.48,4.74,1.25,1.85-.35,4.92-7.81,5.18-9.73.71-5.38-1.43-10.53-7.6-9.58ZM143.91,44.79c1.06.86,6.07,1.11,6.32-.11-2.75-3.9-5.19-7.45-5.52-12.42-.09-1.45,1.31-3.58-.7-3.75-4.66-.38-5.35,6.15-4.49,9.48.36,1.39,3.29,5.91,4.39,6.79ZM183.91,29.69c-.79-.7-3.33-1.75-4.11-.67-.55.77.34,1.9.28,2.75-.14,2.19-.89,5.14-1.8,7.15-.48,1.06-4.35,5.86-3.67,6.51,4.82.83,7.35-1.02,9.55-5.11,1.56-2.9,2.45-8.24-.26-10.63Z"/>
</svg>