<?xml version="1.0" encoding="UTF-8"?>
<svg id="Layer_8" data-name="Layer 8" xmlns="http://www.w3.org/2000/svg" viewBox="0 0 103.96 136.71">
  <defs>
    <style>
      .cls-1 {
        fill: #ccb184;
      }
    </style>
  </defs>
  <path class="cls-1" d="M99.95,18.86c-2.94-9.66-13.45-16.19-22.18-12.01-3.43,1.53-6.99,4.36-7.64,8.48-1.32,7.25,6.64,11.99,12.16,8.46,4.58-3.45.68-9.32.08-12.87.28-3.43,6.82-.95,8.73.68,6.83,5.44,7.41,17.34,2.05,24.15-11.86,15.8-37.1,14.82-49.2,30.24-5.92,8.95-6.21,26.23,2.99,32.81,9.77,6.36,28.54-.83,24.03-15.19-2.44-7.91-14.51-8.3-16.4.13-.94,3.91,2.46,7.71,1.22,11.38-.62,1.38-2.09,1.91-3.78,1.69-4.48-.72-7.5-5.85-7.85-10.43-.85-8.51,5.68-15.06,12.51-18.08,5.27-2.51,11.26-5.67,15.7.17,17.4,20.51,3.23,48.74-21.42,50.52-13.43,1.23-27.97-7.72-32.77-21.11-5.16-13.72-4.41-35,9.86-41.19,3-1,6.3.24,9.28.12,3.51-.02,5.1-3.75,2.39-6.23-.93-.86-2.05-1.35-3.21-1.84-4.23-1.33-7.17-4.53-8.54-8.96-2.74-7.96-2.08-17.45,3.12-23.89,2.59-3.37,7.1-5.41,11.03-3.67,5.33,2.54,1.42,5.07-.28,9.15-1.91,4.45.85,9.85,5.39,10.53,6.25,1.2,10.98-4.14,9.38-10.71C51.72.66,18.34,4.31,18.45,28.86c-.39,10.23,6.69,15.86,5.79,22.55-.63,4-4.43,6.61-7.14,9.25-6.84,6.41-10.12,16.22-10.69,25.77-2.09,26.22,23.46,49.57,47.21,44.73,25.28-4.56,38.71-38.95,24.84-61.61-1.13-1.83-3.2-4.14-3.09-6.29.19-2.67,3.41-3.84,5.48-4.98,1.75-.9,3.47-1.88,5.13-2.97,11.84-7.12,18.67-22.25,14-36.37l-.03-.08Z"/>
</svg>