<?xml version="1.0" encoding="UTF-8"?>
<svg id="Layer_8" xmlns="http://www.w3.org/2000/svg" version="1.1" viewBox="0 0 95.2 126.2">
  <!-- Generator: Adobe Illustrator 29.0.1, SVG Export Plug-In . SVG Version: 2.1.0 Build 192)  -->
  <defs>
    <style>
      .st0 {
        fill: #841618;
      }
    </style>
  </defs>
  <path class="st0" d="M93.7,13.3c-2.9-9.7-13.4-16.2-22.2-12-3.4,1.5-7,4.4-7.6,8.5-1.3,7.2,6.6,12,12.2,8.5,4.6-3.5.7-9.3,0-12.9.3-3.4,6.8-.9,8.7.7,6.8,5.4,7.4,17.3,2.1,24.1-11.9,15.8-37.1,14.8-49.2,30.2-5.9,8.9-6.2,26.2,3,32.8,9.8,6.4,28.5-.8,24-15.2-2.4-7.9-14.5-8.3-16.4.1-.9,3.9,2.5,7.7,1.2,11.4-.6,1.4-2.1,1.9-3.8,1.7-4.5-.7-7.5-5.8-7.8-10.4-.8-8.5,5.7-15.1,12.5-18.1,5.3-2.5,11.3-5.7,15.7.2,17.4,20.5,3.2,48.7-21.4,50.5-13.4,1.2-28-7.7-32.8-21.1-5.2-13.7-4.4-35,9.9-41.2,3-1,6.3.2,9.3.1,3.5,0,5.1-3.8,2.4-6.2-.9-.9-2-1.3-3.2-1.8-4.2-1.3-7.2-4.5-8.5-9-2.7-8-2.1-17.5,3.1-23.9,2.6-3.4,7.1-5.4,11-3.7,5.3,2.5,1.4,5.1-.3,9.1-1.9,4.5.8,9.9,5.4,10.5,6.2,1.2,11-4.1,9.4-10.7C45.4-4.9,12.1-1.3,12.2,23.3c-.4,10.2,6.7,15.9,5.8,22.5-.6,4-4.4,6.6-7.1,9.2C4,61.5.7,71.3.1,80.9c-2.1,26.2,23.5,49.6,47.2,44.7,25.3-4.6,38.7-38.9,24.8-61.6-1.1-1.8-3.2-4.1-3.1-6.3.2-2.7,3.4-3.8,5.5-5,1.8-.9,3.5-1.9,5.1-3,11.8-7.1,18.7-22.2,14-36.4h0q0,0,0,0Z"/>
</svg>